<?xml version="1.0" standalone="no"?>
<!DOCTYPE svg PUBLIC "-//W3C//DTD SVG 20010904//EN"
 "http://www.w3.org/TR/2001/REC-SVG-20010904/DTD/svg10.dtd">
<svg version="1.0" xmlns="http://www.w3.org/2000/svg"
 width="100.000000pt" height="100.000000pt" viewBox="0 0 100.000000 100.000000"
 preserveAspectRatio="xMidYMid meet">
<metadata>
Created by potrace 1.14, written by Peter Selinger 2001-2017
</metadata>
<g transform="translate(0.000000,100.000000) scale(0.100000,-0.100000)"
fill="#000000" stroke="none">
<path d="M559 705 c29 -33 31 -41 31 -110 l0 -75 -75 0 c-41 0 -75 2 -75 5 0
2 9 19 20 37 23 38 25 69 8 100 -29 50 -79 75 -120 59 -22 -9 -22 -9 -3 -17
33 -13 44 -36 44 -89 0 -69 -14 -85 -79 -85 l-52 0 4 100 4 100 -68 0 c-64 0
-89 -13 -53 -27 35 -13 45 -58 45 -200 0 -154 -10 -209 -41 -218 -11 -4 -18
-12 -16 -18 5 -16 166 -32 180 -18 8 8 5 11 -9 11 -37 0 -44 20 -44 122 l0 98
63 0 c59 0 65 -2 75 -25 26 -58 8 -158 -30 -171 -18 -5 -22 -26 -5 -25 4 1 18
1 32 1 15 0 41 15 65 36 35 32 40 42 40 81 0 29 -7 55 -21 74 l-20 29 65 0 66
0 0 -75 c0 -71 -14 -125 -32 -125 -4 0 -8 -7 -8 -15 0 -12 15 -15 79 -15 44 0
83 5 86 10 4 6 -4 19 -17 29 -20 17 -23 30 -27 105 l-3 86 61 0 c72 0 110 16
145 63 37 48 35 94 -6 138 -42 46 -95 59 -233 59 l-107 0 31 -35z m204 3 c35
-17 51 -57 45 -118 -7 -69 -29 -92 -87 -88 l-46 3 -3 94 c-1 52 -1 100 2 108
7 16 54 17 89 1z"/>
</g>
</svg>
